<svg width="727" height="186" viewBox="0 0 727 186" fill="none" xmlns="http://www.w3.org/2000/svg">
<path d="M140.598 73.75L139.483 76.5354L139.565 76.5682L139.649 76.596L140.598 73.75ZM136.098 73.25V70.25H136.026L135.954 70.2534L136.098 73.25ZM83.8477 75.75L83.9587 78.7479L83.9749 78.7473L83.991 78.7466L83.8477 75.75ZM79.3477 111.5L80.4618 108.715L80.38 108.682L80.2963 108.654L79.3477 111.5ZM83.5977 112V115H83.6691L83.7404 114.997L83.5977 112ZM109.848 110.75H112.848V107.604L109.705 107.753L109.848 110.75ZM109.848 132.5L110.873 135.319L112.848 134.601V132.5H109.848ZM122.348 47L121.137 49.7448L121.144 49.748L121.151 49.7512L122.348 47ZM133.098 43.25L130.317 42.1229L130.312 42.1358L133.098 43.25ZM140.598 24.75L137.833 23.5858L137.825 23.6043L137.817 23.6229L140.598 24.75ZM139.098 15.5L140.762 13.0038L140.716 12.9736L140.67 12.945L139.098 15.5ZM109.848 164.5H112.848V159.646L108.506 161.817L109.848 164.5ZM149.098 176V83.25H143.098V176H149.098ZM149.098 83.25C149.098 80.4324 148.609 77.8049 147.362 75.6108C146.072 73.3433 144.09 71.7518 141.546 70.9039L139.649 76.596C140.855 76.9982 141.623 77.6567 142.146 78.5766C142.711 79.5701 143.098 81.0675 143.098 83.25H149.098ZM141.712 70.9646C139.816 70.2061 137.673 70.25 136.098 70.25V76.25C138.023 76.25 138.88 76.2939 139.483 76.5354L141.712 70.9646ZM135.954 70.2534L83.7043 72.7534L83.991 78.7466L136.241 76.2466L135.954 70.2534ZM83.7366 72.7521C80.0025 72.8904 76.6291 73.8029 74.2154 76.1711C71.7686 78.5717 70.8477 81.932 70.8477 85.75H76.8477C76.8477 82.818 77.5517 81.3033 78.4174 80.4539C79.3162 79.5721 80.9428 78.8596 83.9587 78.7479L83.7366 72.7521ZM70.8477 85.75V102.25H76.8477V85.75H70.8477ZM70.8477 102.25C70.8477 104.966 71.3443 107.534 72.5963 109.693C73.8852 111.915 75.8602 113.5 78.399 114.346L80.2963 108.654C79.0851 108.25 78.3101 107.585 77.7865 106.682C77.226 105.716 76.8477 104.284 76.8477 102.25H70.8477ZM78.2335 114.285C80.1235 115.041 82.2501 115 83.5977 115V109C81.9452 109 81.0718 108.959 80.4618 108.715L78.2335 114.285ZM83.7404 114.997L109.99 113.747L109.705 107.753L83.455 109.003L83.7404 114.997ZM106.848 110.75V132.5H112.848V110.75H106.848ZM108.822 129.681C101.054 132.506 92.7095 133 87.5977 133V139C92.9858 139 102.142 138.494 110.873 135.319L108.822 129.681ZM87.5977 133C70.9922 133 59.1117 127.846 51.3593 119.491C43.5719 111.098 39.5977 99.0938 39.5977 84.75H33.5977C33.5977 100.156 37.8735 113.777 46.961 123.572C56.0836 133.404 69.7031 139 87.5977 139V133ZM39.5977 84.75C39.5977 72.1164 43.5233 61.2289 50.9464 53.5181C58.3477 45.8299 69.514 41 84.5977 41V35C68.1813 35 55.3476 40.2951 46.6239 49.3569C37.922 58.3961 33.5977 70.8836 33.5977 84.75H39.5977ZM84.5977 41C96.7533 41 112.813 46.0726 121.137 49.7448L123.559 44.2552C114.882 40.4274 97.942 35 84.5977 35V41ZM121.151 49.7512C124.249 51.0977 127.337 51.7813 130.154 50.7569C133.058 49.7008 134.758 47.178 135.883 44.3642L130.312 42.1358C129.438 44.322 128.637 44.9242 128.104 45.1181C127.483 45.3437 126.197 45.4023 123.544 44.2488L121.151 49.7512ZM135.878 44.3771L143.378 25.8771L137.817 23.6229L130.317 42.1229L135.878 44.3771ZM143.363 25.9142C144.43 23.3778 145.076 20.9146 144.68 18.5903C144.249 16.0589 142.706 14.3 140.762 13.0038L137.434 17.9961C138.489 18.7 138.696 19.191 138.765 19.5971C138.87 20.2104 138.765 21.3722 137.833 23.5858L143.363 25.9142ZM140.67 12.945C123.897 2.62348 103.091 -2.50001 84.5977 -2.50001V3.49999C102.104 3.49999 121.798 8.37649 137.525 18.055L140.67 12.945ZM84.5977 -2.50001C58.4266 -2.50001 36.5573 6.10882 21.2241 21.4747C5.89184 36.8395 -2.65234 58.707 -2.65234 84.75H3.34766C3.34766 60.0429 11.4285 39.7854 25.4712 25.7128C39.513 11.6412 59.7688 3.49999 84.5977 3.49999V-2.50001ZM-2.65234 84.75C-2.65234 111.59 5.34296 133.941 19.967 149.609C34.6122 165.301 55.6374 174 81.0977 174V168C57.0579 168 37.7082 159.824 24.3533 145.516C10.9774 131.184 3.34766 110.41 3.34766 84.75H-2.65234ZM81.0977 174C90.7491 174 102.219 171.669 111.189 167.183L108.506 161.817C100.477 165.831 89.9462 168 81.0977 168V174ZM106.848 164.5V175.25H112.848V164.5H106.848ZM106.848 175.25C106.848 178.906 107.686 182.321 109.973 184.832C112.308 187.396 115.674 188.5 119.598 188.5V182.5C116.771 182.5 115.262 181.729 114.409 180.793C113.509 179.804 112.848 178.094 112.848 175.25H106.848ZM119.598 188.5H135.848V182.5H119.598V188.5ZM135.848 188.5C139.545 188.5 142.986 187.761 145.5 185.521C148.086 183.217 149.098 179.866 149.098 176H143.098C143.098 178.884 142.359 180.283 141.508 181.041C140.584 181.864 138.9 182.5 135.848 182.5V188.5ZM276.607 175.25L279.23 176.707L279.322 176.541L279.393 176.364L276.607 175.25ZM171.357 55.5L173.122 57.9262L173.168 57.8926L173.213 57.8572L171.357 55.5ZM168.607 62L165.666 62.5883L165.72 62.8584L165.822 63.1142L168.607 62ZM170.357 66L167.674 67.3416L167.683 67.36L167.693 67.3783L170.357 66ZM174.107 73.25L176.809 71.9457L176.791 71.9085L176.772 71.8717L174.107 73.25ZM177.607 80.5L174.906 81.8042L174.928 81.8512L174.953 81.8972L177.607 80.5ZM186.857 85L188.401 87.5725L188.415 87.5638L188.43 87.555L186.857 85ZM241.607 93.75L244.567 93.2568L244.552 93.1678L244.532 93.0799L241.607 93.75ZM242.357 98.5L241.193 101.265L246.077 103.321L245.327 98.0757L242.357 98.5ZM211.857 173.75L211.586 170.762L211.474 170.772L211.364 170.791L211.857 173.75ZM242.357 160.25H245.357V153.172L240.271 158.094L242.357 160.25ZM242.357 125.75H245.357V123.685L243.429 122.948L242.357 125.75ZM241.357 131.25L238.674 129.908L238.637 129.982L238.605 130.057L241.357 131.25ZM269.857 181.5C273.744 181.5 277.262 180.248 279.23 176.707L273.985 173.793C273.452 174.752 272.471 175.5 269.857 175.5V181.5ZM279.393 176.364C280.05 174.722 280.357 173.088 280.357 171H274.357C274.357 172.412 274.165 173.278 273.822 174.136L279.393 176.364ZM280.357 171V97.75H274.357V171H280.357ZM280.357 97.75C280.357 79.3733 274.651 64.2379 264.104 53.6912C253.558 43.1451 238.485 37.5 220.357 37.5V43.5C237.23 43.5 250.657 48.7299 259.861 57.9338C269.064 67.1371 274.357 80.6267 274.357 97.75H280.357ZM220.357 37.5C200.836 37.5 181.889 43.3913 169.502 53.1428L173.213 57.8572C184.326 49.1086 201.879 43.5 220.357 43.5V37.5ZM169.593 53.0738C167.908 54.299 166.636 55.7268 165.962 57.4911C165.286 59.2591 165.349 61.0031 165.666 62.5883L171.549 61.4117C171.366 60.4969 171.429 59.9909 171.566 59.6339C171.704 59.2732 172.057 58.701 173.122 57.9262L169.593 53.0738ZM165.822 63.1142C166.322 64.3643 166.863 65.7184 167.674 67.3416L173.041 64.6584C172.352 63.2816 171.893 62.1357 171.393 60.8858L165.822 63.1142ZM167.693 67.3783L171.443 74.6283L176.772 71.8717L173.022 64.6217L167.693 67.3783ZM171.406 74.5542L174.906 81.8042L180.309 79.1958L176.809 71.9457L171.406 74.5542ZM174.953 81.8972C176.299 84.4556 178.027 86.7886 180.358 88.025C182.967 89.4097 185.779 89.1453 188.401 87.5725L185.314 82.4275C184.185 83.1047 183.623 82.9653 183.17 82.7249C182.438 82.3364 181.416 81.2944 180.262 79.1028L174.953 81.8972ZM188.43 87.555C197.852 81.7566 207.811 78.5 216.357 78.5V72.5C206.403 72.5 195.363 76.2434 185.285 82.445L188.43 87.555ZM216.357 78.5C222.658 78.5 227.623 79.9575 231.268 82.565C234.878 85.1469 237.45 89.0376 238.683 94.4201L244.532 93.0799C243.015 86.4624 239.712 81.2281 234.759 77.685C229.842 74.1675 223.557 72.5 216.357 72.5V78.5ZM238.648 94.2432C238.899 95.745 239.143 97.2131 239.388 98.9243L245.327 98.0757C245.072 96.2869 244.816 94.755 244.567 93.2568L238.648 94.2432ZM243.522 95.7351C233.73 91.6121 222.583 89 212.607 89V95C221.632 95 231.985 97.3878 241.193 101.265L243.522 95.7351ZM212.607 89C194.695 89 181.739 93.9053 173.249 102.054C164.755 110.207 161.107 121.245 161.107 132.75H167.107C167.107 122.505 170.334 113.168 177.404 106.383C184.476 99.5947 195.77 95 212.607 95V89ZM161.107 132.75C161.107 158.012 180.307 177 207.607 177V171C183.407 171 167.107 154.488 167.107 132.75H161.107ZM207.607 177C208.829 177 210.569 177.006 212.351 176.709L211.364 170.791C210.145 170.994 208.886 171 207.607 171V177ZM212.129 176.738C223.737 175.682 236.151 170.431 244.444 162.406L240.271 158.094C233.064 165.069 221.978 169.818 211.586 170.762L212.129 176.738ZM239.357 160.25V171H245.357V160.25H239.357ZM239.357 171C239.357 173.962 240.1 176.735 242.111 178.746C244.122 180.757 246.895 181.5 249.857 181.5V175.5C247.82 175.5 246.843 174.993 246.354 174.504C245.865 174.015 245.357 173.038 245.357 171H239.357ZM249.857 181.5H269.857V175.5H249.857V181.5ZM216.357 139.75C212.112 139.75 208.368 138.824 205.796 137.296C203.28 135.801 202.107 133.911 202.107 131.75H196.107C196.107 136.589 198.935 140.199 202.731 142.454C206.472 144.676 211.353 145.75 216.357 145.75V139.75ZM202.107 131.75C202.107 129.066 203.091 127.306 205.039 126.057C207.208 124.666 210.841 123.75 216.357 123.75V117.75C210.374 117.75 205.382 118.709 201.8 121.006C197.999 123.444 196.107 127.184 196.107 131.75H202.107ZM216.357 123.75C223.97 123.75 233.108 125.425 241.286 128.552L243.429 122.948C234.607 119.575 224.745 117.75 216.357 117.75V123.75ZM239.357 125.75V126.75H245.357V125.75H239.357ZM239.357 126.75C239.357 127.899 239.17 128.917 238.674 129.908L244.041 132.592C245.045 130.583 245.357 128.601 245.357 126.75H239.357ZM238.605 130.057C237.41 132.813 234.518 135.264 230.31 137.051C226.16 138.813 221.128 139.75 216.357 139.75V145.75C221.837 145.75 227.679 144.687 232.655 142.574C237.572 140.486 242.054 137.187 244.11 132.443L238.605 130.057ZM406.561 69L403.752 70.0534L406.031 76.1311L409.183 70.4569L406.561 69ZM332.811 63.5H329.811V74.0583L335.362 65.0775L332.811 63.5ZM413.561 166V115.5H407.561V166H413.561ZM413.561 115.5C413.561 104.049 415.31 96.4436 418.584 91.7469C421.684 87.2999 426.493 85 434.061 85V79C425.128 79 418.187 81.8251 413.662 88.3156C409.311 94.5564 407.561 103.701 407.561 115.5H413.561ZM434.061 85C439.245 85 443.099 86.8386 445.77 90.466C448.549 94.2412 450.311 100.319 450.311 109.25H456.311C456.311 99.6812 454.448 92.1338 450.602 86.909C446.647 81.5364 440.876 79 434.061 79V85ZM450.311 109.25V161H456.311V109.25H450.311ZM450.311 161C450.311 164.809 451.227 168.221 453.658 170.653C456.089 173.084 459.502 174 463.311 174V168C460.369 168 458.782 167.291 457.901 166.41C457.02 165.529 456.311 163.941 456.311 161H450.311ZM463.311 174H478.311V168H463.311V174ZM478.311 174C482.119 174 485.532 173.084 487.963 170.653C490.395 168.221 491.311 164.809 491.311 161H485.311C485.311 163.941 484.602 165.529 483.72 166.41C482.839 167.291 481.252 168 478.311 168V174ZM491.311 161V98H485.311V161H491.311ZM491.311 98C491.311 79.4114 486.695 65.6043 478.521 56.4126C470.307 47.1762 458.855 43 446.061 43V49C457.516 49 467.189 52.6988 474.038 60.3999C480.926 68.1457 485.311 80.3386 485.311 98H491.311ZM446.061 43C429.34 43 413.273 50.7409 403.938 67.5431L409.183 70.4569C417.348 55.7591 431.281 49 446.061 49V43ZM409.37 67.9466C405.793 58.409 400.161 51.3669 393.004 46.7319C385.866 42.1095 377.398 40 368.311 40V46C376.473 46 383.755 47.8905 389.742 51.7681C395.71 55.6331 400.578 61.591 403.752 70.0534L409.37 67.9466ZM368.311 40C353.776 40 339.308 47.2842 330.259 61.9225L335.362 65.0775C343.313 52.2157 355.845 46 368.311 46V40ZM335.811 63.5V46H329.811V63.5H335.811ZM335.811 46C335.811 42.1911 334.895 38.7788 332.463 36.3474C330.032 33.916 326.619 33 322.811 33V39C325.752 39 327.339 39.7089 328.22 40.5901C329.102 41.4712 329.811 43.0589 329.811 46H335.811ZM322.811 33H307.811V39H322.811V33ZM307.811 33C304.002 33 300.589 33.916 298.158 36.3474C295.727 38.7788 294.811 42.1911 294.811 46H300.811C300.811 43.0589 301.52 41.4712 302.401 40.5901C303.282 39.7089 304.869 39 307.811 39V33ZM294.811 46V161H300.811V46H294.811ZM294.811 161C294.811 164.809 295.727 168.221 298.158 170.653C300.589 173.084 304.002 174 307.811 174V168C304.869 168 303.282 167.291 302.401 166.41C301.52 165.529 300.811 163.941 300.811 161H294.811ZM307.811 174H322.811V168H307.811V174ZM322.811 174C326.619 174 330.032 173.084 332.463 170.653C334.895 168.221 335.811 164.809 335.811 161H329.811C329.811 163.941 329.102 165.529 328.22 166.41C327.339 167.291 325.752 168 322.811 168V174ZM335.811 161V112.5H329.811V161H335.811ZM335.811 112.5C335.811 101.049 337.56 93.4436 340.834 88.7469C343.934 84.2999 348.743 82 356.311 82V76C347.378 76 340.437 78.8251 335.912 85.3156C331.561 91.5564 329.811 100.701 329.811 112.5H335.811ZM356.311 82C361.495 82 365.349 83.8386 368.02 87.4659C370.799 91.2412 372.561 97.3188 372.561 106.25H378.561C378.561 96.6812 376.698 89.1338 372.852 83.909C368.897 78.5363 363.126 76 356.311 76V82ZM372.561 106.25V166H378.561V106.25H372.561ZM372.561 166C372.561 169.809 373.477 173.221 375.908 175.653C378.339 178.084 381.752 179 385.561 179V173C382.619 173 381.032 172.291 380.151 171.41C379.27 170.529 378.561 168.941 378.561 166H372.561ZM385.561 179H400.561V173H385.561V179ZM400.561 179C404.369 179 407.782 178.084 410.213 175.653C412.645 173.221 413.561 169.809 413.561 166H407.561C407.561 168.941 406.852 170.529 405.97 171.41C405.089 172.291 403.502 173 400.561 173V179ZM615.242 159L617.11 161.347L617.122 161.338L617.134 161.328L615.242 159ZM616.242 148.5L619.057 147.463L619.05 147.443L619.042 147.423L616.242 148.5ZM611.242 135.5L608.427 136.537L608.435 136.557L608.442 136.577L611.242 135.5ZM601.992 131L603.456 133.619L603.496 133.596L603.536 133.572L601.992 131ZM540.242 122.75L539.9 119.77L535.806 120.239L537.511 123.991L540.242 122.75ZM609.992 114.75L609.652 111.769L609.65 111.77L609.992 114.75ZM583.742 90.5L584.09 93.4798L587.481 93.0842L586.653 89.7724L583.742 90.5ZM538.742 95.75L535.804 95.1422L534.963 99.2113L539.09 98.7298L538.742 95.75ZM568.492 177C585.014 177 604.219 171.608 617.11 161.347L613.374 156.653C601.766 165.892 583.97 171 568.492 171V177ZM617.134 161.328C619.611 159.316 620.952 157.073 620.898 154.255C620.874 153.023 620.583 151.847 620.248 150.785C619.918 149.742 619.467 148.576 619.057 147.463L613.427 149.537C613.892 150.799 614.253 151.727 614.526 152.59C614.792 153.434 614.891 153.977 614.899 154.37C614.907 154.802 614.873 155.434 613.35 156.672L617.134 161.328ZM619.042 147.423L614.042 134.423L608.442 136.577L613.442 149.577L619.042 147.423ZM614.057 134.463C613.006 131.611 611.214 129.195 608.709 127.942C606.079 126.627 603.116 126.827 600.449 128.428L603.536 133.572C604.618 132.923 605.406 132.998 606.026 133.308C606.77 133.68 607.728 134.639 608.427 136.537L614.057 134.463ZM600.529 128.381C596.281 130.755 591.606 133.3 586.851 135.257C582.074 137.222 577.43 138.5 573.242 138.5V144.5C578.554 144.5 584.035 142.903 589.134 140.806C594.253 138.7 599.204 135.995 603.456 133.619L600.529 128.381ZM573.242 138.5C557.273 138.5 547.429 131.311 542.973 121.509L537.511 123.991C543.056 136.189 555.212 144.5 573.242 144.5V138.5ZM540.584 125.73L610.334 117.73L609.65 111.77L539.9 119.77L540.584 125.73ZM610.333 117.731C615.147 117.18 618.755 115.614 620.776 111.948C622.553 108.724 622.742 104.36 622.742 99.5H616.742C616.742 104.64 616.431 107.401 615.521 109.052C614.854 110.261 613.588 111.32 609.652 111.769L610.333 117.731ZM622.742 99.5C622.742 81.493 617.096 66.5702 606.991 56.1321C596.88 45.6868 582.561 40 565.742 40V46C581.174 46 593.855 51.1882 602.68 60.3054C611.513 69.4298 616.742 82.757 616.742 99.5H622.742ZM565.742 40C544.221 40 527.681 47.7433 516.555 60.3595C505.476 72.9224 499.992 90.0535 499.992 108.5H505.992C505.992 91.1965 511.134 75.5776 521.055 64.328C530.929 53.1317 545.764 46 565.742 46V40ZM499.992 108.5C499.992 128.551 506.666 145.722 518.703 157.891C530.745 170.065 547.925 177 568.492 177V171C549.309 171 533.739 164.56 522.969 153.672C512.193 142.778 505.992 127.199 505.992 108.5H499.992ZM563.242 78.5C572.715 78.5 578.939 83.6575 580.832 91.2276L586.653 89.7724C584.045 79.3425 575.269 72.5 563.242 72.5V78.5ZM583.395 87.5202L538.395 92.7702L539.09 98.7298L584.09 93.4798L583.395 87.5202ZM541.68 96.3578C543.083 89.5784 545.684 85.2345 549.099 82.544C552.528 79.8425 557.167 78.5 563.242 78.5V72.5C556.318 72.5 550.207 74.0325 545.386 77.831C540.551 81.6405 537.402 87.4216 535.804 95.1422L541.68 96.3578ZM645.219 131.5L643.675 134.072L643.728 134.104L643.782 134.134L645.219 131.5ZM635.969 136L638.794 137.009L638.798 136.998L635.969 136ZM630.969 150L633.778 151.053L633.786 151.031L633.794 151.009L630.969 150ZM631.969 160.5L630.077 162.828L630.083 162.833L631.969 160.5ZM706.219 82.5L707.333 79.7146L707.323 79.7106L706.219 82.5ZM715.469 78L718.243 79.1422L718.247 79.1328L718.25 79.1234L715.469 78ZM720.719 65L717.97 63.7975L717.953 63.8368L717.937 63.8766L720.719 65ZM719.719 54.5L721.519 52.1L721.51 52.0933L719.719 54.5ZM628.469 83.25C628.469 95.6769 632.56 104.382 638.908 110.56C645.143 116.629 653.321 120.028 661.093 122.4C664.993 123.591 668.887 124.55 672.439 125.44C676.036 126.341 679.244 127.161 681.959 128.098C684.707 129.046 686.657 130.018 687.889 131.08C689.004 132.042 689.469 133.006 689.469 134.25H695.469C695.469 130.994 694.027 128.451 691.807 126.536C689.702 124.722 686.886 123.45 683.916 122.426C680.912 121.39 677.448 120.509 673.897 119.62C670.301 118.719 666.569 117.799 662.845 116.662C655.367 114.379 648.294 111.324 643.092 106.26C638.002 101.306 634.469 94.1981 634.469 83.25H628.469ZM689.469 134.25C689.469 134.975 689.297 135.409 689.088 135.712C688.865 136.036 688.454 136.416 687.671 136.781C686.006 137.556 683.24 138 679.219 138V144C683.448 144 687.307 143.569 690.204 142.219C691.702 141.522 693.057 140.527 694.029 139.116C695.016 137.685 695.469 136.025 695.469 134.25H689.469ZM679.219 138C667.4 138 654.655 133.23 646.655 128.866L643.782 134.134C652.282 138.77 666.037 144 679.219 144V138ZM646.762 128.928C643.947 127.238 640.891 127.317 638.349 128.66C635.909 129.949 634.093 132.3 633.14 135.002L638.798 136.998C639.344 135.45 640.278 134.426 641.151 133.965C641.922 133.558 642.741 133.512 643.675 134.072L646.762 128.928ZM633.144 134.991L628.144 148.991L633.794 151.009L638.794 137.009L633.144 134.991ZM628.16 148.947C627.5 150.707 626.493 153.09 626.408 155.422C626.308 158.188 627.432 160.679 630.077 162.828L633.861 158.172C632.505 157.071 632.38 156.312 632.404 155.64C632.444 154.535 632.938 153.293 633.778 151.053L628.16 148.947ZM630.083 162.833C642.566 172.926 660.593 177 677.219 177V171C661.345 171 644.871 167.074 633.855 158.167L630.083 162.833ZM677.219 177C689.275 177 702.217 174.028 712.226 166.596C722.364 159.069 729.219 147.158 729.219 130H723.219C723.219 145.342 717.198 155.431 708.649 161.779C699.971 168.222 688.413 171 677.219 171V177ZM729.219 130C729.219 117.915 725.103 109.529 718.719 103.656C712.465 97.9016 704.276 94.7859 696.519 92.6398C692.622 91.562 688.73 90.7029 685.183 89.8989C681.59 89.0847 678.385 88.3341 675.676 87.455C672.932 86.5646 670.994 85.632 669.775 84.6034C668.68 83.679 668.219 82.7401 668.219 81.5H662.219C662.219 84.7599 663.664 87.2976 665.905 89.1886C668.022 90.9754 670.85 92.1971 673.824 93.1622C676.834 94.1385 680.3 94.9446 683.856 95.7505C687.457 96.5666 691.19 97.3911 694.919 98.4227C702.411 100.495 709.473 103.302 714.656 108.071C719.71 112.721 723.219 119.46 723.219 130H729.219ZM668.219 81.5C668.219 80.0764 668.67 79.3844 669.364 78.9041C670.257 78.2854 671.972 77.75 674.969 77.75V71.75C671.465 71.75 668.305 72.3396 665.949 73.9709C663.392 75.7406 662.219 78.4236 662.219 81.5H668.219ZM674.969 77.75C684.602 77.75 693.14 80.5493 705.115 85.2894L707.323 79.7106C695.298 74.9507 685.836 71.75 674.969 71.75V77.75ZM705.105 85.2854C707.71 86.3275 710.463 86.2784 712.894 85.11C715.297 83.9545 717.137 81.8284 718.243 79.1422L712.695 76.8577C712.051 78.4216 711.14 79.2955 710.294 79.7025C709.474 80.0966 708.478 80.1725 707.333 79.7146L705.105 85.2854ZM718.25 79.1234L723.5 66.1234L717.937 63.8766L712.687 76.8766L718.25 79.1234ZM723.467 66.2025C724.308 64.2804 725.331 61.8699 725.375 59.4286C725.425 56.6258 724.214 54.1218 721.519 52.1L717.919 56.9C719.223 57.8782 719.388 58.6242 719.375 59.3214C719.357 60.3801 718.879 61.7196 717.97 63.7975L723.467 66.2025ZM721.51 52.0933C710.034 43.5529 692.044 40 678.469 40V46C691.394 46 707.904 49.4471 717.928 56.9067L721.51 52.0933ZM678.469 40C663.139 40 650.629 44.4881 641.91 52.2606C633.168 60.0536 628.469 70.9505 628.469 83.25H634.469C634.469 72.5495 638.519 63.3214 645.903 56.7393C653.309 50.1369 664.298 46 678.469 46V40Z" fill="#6B8FC0" fill-opacity="0.06"/>
</svg>
