<svg width="216" height="216" viewBox="0 0 216 216" fill="none" xmlns="http://www.w3.org/2000/svg">
<g opacity="0.12">
<circle cx="3" cy="3" r="3" fill="#CDA771"/>
<circle cx="33" cy="3" r="3" fill="#CDA771"/>
<circle cx="63" cy="3" r="3" fill="#CDA771"/>
<circle cx="93" cy="3" r="3" fill="#CDA771"/>
<circle cx="123" cy="3" r="3" fill="#CDA771"/>
<circle cx="153" cy="3" r="3" fill="#CDA771"/>
<circle cx="183" cy="3" r="3" fill="#CDA771"/>
<circle cx="213" cy="3" r="3" fill="#CDA771"/>
<circle cx="3" cy="33" r="3" fill="#CDA771"/>
<circle cx="33" cy="33" r="3" fill="#CDA771"/>
<circle cx="63" cy="33" r="3" fill="#CDA771"/>
<circle cx="93" cy="33" r="3" fill="#CDA771"/>
<circle cx="123" cy="33" r="3" fill="#CDA771"/>
<circle cx="153" cy="33" r="3" fill="#CDA771"/>
<circle cx="183" cy="33" r="3" fill="#CDA771"/>
<circle cx="213" cy="33" r="3" fill="#CDA771"/>
<circle cx="3" cy="63" r="3" fill="#CDA771"/>
<circle cx="33" cy="63" r="3" fill="#CDA771"/>
<circle cx="63" cy="63" r="3" fill="#CDA771"/>
<circle cx="93" cy="63" r="3" fill="#CDA771"/>
<circle cx="123" cy="63" r="3" fill="#CDA771"/>
<circle cx="153" cy="63" r="3" fill="#CDA771"/>
<circle cx="183" cy="63" r="3" fill="#CDA771"/>
<circle cx="213" cy="63" r="3" fill="#CDA771"/>
<circle cx="3" cy="93" r="3" fill="#CDA771"/>
<circle cx="33" cy="93" r="3" fill="#CDA771"/>
<circle cx="63" cy="93" r="3" fill="#CDA771"/>
<circle cx="93" cy="93" r="3" fill="#CDA771"/>
<circle cx="123" cy="93" r="3" fill="#CDA771"/>
<circle cx="153" cy="93" r="3" fill="#CDA771"/>
<circle cx="183" cy="93" r="3" fill="#CDA771"/>
<circle cx="213" cy="93" r="3" fill="#CDA771"/>
<circle cx="3" cy="123" r="3" fill="#CDA771"/>
<circle cx="33" cy="123" r="3" fill="#CDA771"/>
<circle cx="63" cy="123" r="3" fill="#CDA771"/>
<circle cx="93" cy="123" r="3" fill="#CDA771"/>
<circle cx="123" cy="123" r="3" fill="#CDA771"/>
<circle cx="153" cy="123" r="3" fill="#CDA771"/>
<circle cx="183" cy="123" r="3" fill="#CDA771"/>
<circle cx="213" cy="123" r="3" fill="#CDA771"/>
<circle cx="3" cy="153" r="3" fill="#CDA771"/>
<circle cx="33" cy="153" r="3" fill="#CDA771"/>
<circle cx="63" cy="153" r="3" fill="#CDA771"/>
<circle cx="93" cy="153" r="3" fill="#CDA771"/>
<circle cx="123" cy="153" r="3" fill="#CDA771"/>
<circle cx="153" cy="153" r="3" fill="#CDA771"/>
<circle cx="183" cy="153" r="3" fill="#CDA771"/>
<circle cx="213" cy="153" r="3" fill="#CDA771"/>
<circle cx="3" cy="183" r="3" fill="#CDA771"/>
<circle cx="33" cy="183" r="3" fill="#CDA771"/>
<circle cx="63" cy="183" r="3" fill="#CDA771"/>
<circle cx="93" cy="183" r="3" fill="#CDA771"/>
<circle cx="123" cy="183" r="3" fill="#CDA771"/>
<circle cx="153" cy="183" r="3" fill="#CDA771"/>
<circle cx="183" cy="183" r="3" fill="#CDA771"/>
<circle cx="213" cy="183" r="3" fill="#CDA771"/>
<circle cx="3" cy="213" r="3" fill="#CDA771"/>
<circle cx="33" cy="213" r="3" fill="#CDA771"/>
<circle cx="63" cy="213" r="3" fill="#CDA771"/>
<circle cx="93" cy="213" r="3" fill="#CDA771"/>
<circle cx="123" cy="213" r="3" fill="#CDA771"/>
<circle cx="153" cy="213" r="3" fill="#CDA771"/>
<circle cx="183" cy="213" r="3" fill="#CDA771"/>
<circle cx="213" cy="213" r="3" fill="#CDA771"/>
</g>
</svg>
