<svg width="144" height="34" viewBox="0 0 144 34" fill="none" xmlns="http://www.w3.org/2000/svg">
<path d="M23.8666 26.7399C21.5733 28.7399 18.5466 29.9265 15.2266 29.8332C8.33331 29.6465 2.95996 23.7132 2.95996 16.8199V7.44655C2.95996 6.84655 3.67997 6.55321 4.0933 6.97988L23.8666 26.7399Z" fill="#F97272"/>
<path d="M8.29297 6.23323C10.573 4.24656 13.573 3.07322 16.8663 3.16656C23.7063 3.35322 29.0263 9.23321 29.0263 16.0732V25.3532C29.0263 25.9532 28.3063 26.2466 27.893 25.8199L8.29297 6.23323Z" fill="#F97272"/>
<path d="M43.92 24.54V15.468L46.992 20.076C47.184 20.388 47.4 20.46 47.616 20.46H48.84C49.056 20.46 49.248 20.412 49.464 20.1L52.416 15.756V25.02C52.416 25.668 52.728 25.98 53.376 25.98H54.936C55.584 25.98 55.896 25.668 55.896 25.02V10.38C55.896 9.732 55.584 9.42 54.936 9.42H53.376C52.872 9.42 52.68 9.66 52.464 9.996L48.336 16.044L43.8 9.276C43.608 8.988 43.368 8.94 42.96 8.94H41.4C40.752 8.94 40.44 9.252 40.44 9.9V24.54C40.44 25.188 40.752 25.5 41.4 25.5H42.96C43.608 25.5 43.92 25.188 43.92 24.54ZM60.0881 12.324C61.1921 12.324 62.1281 11.388 62.1281 10.26C62.1281 9.156 61.1921 8.22 60.0881 8.22C58.9841 8.22 58.0481 9.156 58.0481 10.26C58.0481 11.388 58.9841 12.324 60.0881 12.324ZM61.7681 24.54V14.94C61.7681 14.292 61.4561 13.98 60.8081 13.98H59.3681C58.7201 13.98 58.4081 14.292 58.4081 14.94V24.54C58.4081 25.188 58.7201 25.5 59.3681 25.5H60.8081C61.4561 25.5 61.7681 25.188 61.7681 24.54ZM67.2994 25.02V19.884C67.2994 17.676 68.3314 16.692 69.9154 16.692C71.0674 16.692 71.7634 17.532 71.7634 19.284V24.54C71.7634 25.188 72.0754 25.5 72.7234 25.5H74.1634C74.8114 25.5 75.1234 25.188 75.1234 24.54V18.204C75.1234 14.724 73.3954 13.212 71.0674 13.212C69.7234 13.212 68.2114 13.884 67.2994 15.3V13.5C67.2994 12.852 66.9874 12.54 66.3394 12.54H64.8994C64.2514 12.54 63.9394 12.852 63.9394 13.5V25.02C63.9394 25.668 64.2514 25.98 64.8994 25.98H66.3394C66.9874 25.98 67.2994 25.668 67.2994 25.02ZM78.7913 12.324C79.8953 12.324 80.8313 11.388 80.8313 10.26C80.8313 9.156 79.8953 8.22 78.7913 8.22C77.6873 8.22 76.7513 9.156 76.7513 10.26C76.7513 11.388 77.6873 12.324 78.7913 12.324ZM80.4713 24.54V14.94C80.4713 14.292 80.1593 13.98 79.5113 13.98H78.0713C77.4233 13.98 77.1113 14.292 77.1113 14.94V24.54C77.1113 25.188 77.4233 25.5 78.0713 25.5H79.5113C80.1593 25.5 80.4713 25.188 80.4713 24.54ZM92.1465 24.732C92.5545 24.444 92.4345 24.132 92.2425 23.724L91.6185 22.332C91.4265 21.876 91.0905 21.684 90.7305 21.9C90.2025 22.236 89.5065 22.596 88.8825 22.596C87.8745 22.596 87.2505 22.092 87.2505 20.556V18.252L90.5625 18.444C91.0425 18.468 91.3785 18.084 91.3785 17.628V15.708C91.3785 15.252 91.2345 14.988 90.7065 14.964L87.2505 14.748V11.82C87.2505 11.34 87.0105 11.1 86.5305 11.1H84.6105C84.1305 11.1 83.8905 11.34 83.8905 11.82V14.556L82.6425 14.484C82.1625 14.46 81.8265 14.844 81.8265 15.3V17.22C81.8265 17.676 81.9705 17.94 82.4985 17.964L83.8905 18.036V21.156C83.8905 24.396 85.4025 26.028 88.0185 26.028C89.4585 26.028 91.0425 25.572 92.1465 24.732ZM99.1764 25.788C102.92 25.788 105.2 23.1 105.2 19.5C105.2 15.9 102.92 13.212 99.1764 13.212C95.4324 13.212 93.1524 15.9 93.1524 19.5C93.1524 23.1 95.4324 25.788 99.1764 25.788ZM99.1764 22.308C97.7124 22.308 96.5124 21.54 96.5124 19.5C96.5124 17.46 97.7124 16.692 99.1764 16.692C100.64 16.692 101.84 17.46 101.84 19.5C101.84 21.54 100.64 22.308 99.1764 22.308ZM115.615 25.74L116.671 25.524C117.535 25.356 117.775 24.948 117.319 24.18L113.863 18.18L116.935 15.348C117.391 14.94 117.247 14.532 116.791 14.076L115.687 12.996C115.207 12.516 114.799 12.708 114.391 13.068L110.143 16.98V9.66C110.143 9.012 109.831 8.7 109.183 8.7H107.743C107.095 8.7 106.783 9.012 106.783 9.66V24.54C106.783 25.188 107.095 25.5 107.743 25.5H109.183C109.831 25.5 110.143 25.188 110.143 24.54V21.588L111.487 20.364L114.175 24.828C114.727 25.74 114.823 25.908 115.615 25.74ZM124.589 25.788C126.125 25.788 127.901 25.284 129.077 24.348C129.461 24.036 129.341 23.796 129.173 23.34L128.693 22.092C128.525 21.636 128.165 21.444 127.805 21.66C126.989 22.116 125.957 22.668 125.045 22.668C123.413 22.668 122.357 21.924 121.877 20.868L128.573 20.1C129.413 20.004 129.509 19.596 129.509 18.636C129.509 15.3 127.421 13.212 124.325 13.212C120.341 13.212 118.301 16.068 118.301 19.5C118.301 23.22 120.773 25.788 124.589 25.788ZM124.085 16.332C125.117 16.332 125.837 16.908 126.053 17.772L121.733 18.276C122.021 16.884 122.837 16.332 124.085 16.332ZM134.331 25.02V19.884C134.331 17.676 135.363 16.692 136.947 16.692C138.099 16.692 138.795 17.532 138.795 19.284V24.54C138.795 25.188 139.107 25.5 139.755 25.5H141.195C141.843 25.5 142.155 25.188 142.155 24.54V18.204C142.155 14.724 140.427 13.212 138.099 13.212C136.755 13.212 135.243 13.884 134.331 15.3V13.5C134.331 12.852 134.019 12.54 133.371 12.54H131.931C131.283 12.54 130.971 12.852 130.971 13.5V25.02C130.971 25.668 131.283 25.98 131.931 25.98H133.371C134.019 25.98 134.331 25.668 134.331 25.02Z" fill="#F97272"/>
</svg>
